<svg width="255" height="190" viewBox="0 0 255 190" fill="none" xmlns="http://www.w3.org/2000/svg">
<path d="M177.984 94.9857C177.984 119.464 158.14 139.308 133.662 139.308C109.183 139.308 89.3399 119.464 89.3399 94.9857C89.3399 70.5074 109.183 50.6638 133.662 50.6638C158.14 50.6638 177.984 70.5074 177.984 94.9857Z" stroke="black" stroke-width="7"/>
<path d="M65.3047 93.2357L64.3061 94.9654L65.2871 96.705L86.9906 135.191C81.0388 137.952 74.5336 139.364 67.9434 139.306C60.1826 139.237 52.5759 137.132 45.8842 133.2C39.1925 129.269 33.6505 123.649 29.8125 116.904C25.9745 110.158 23.9751 102.523 24.0144 94.7615C24.0537 87.0005 26.1302 79.3859 30.0362 72.6793C33.9422 65.9727 39.5408 60.4094 46.272 56.5459C53.0031 52.6823 60.6307 50.654 68.3918 50.6638C74.9823 50.6722 81.4728 52.1499 87.3965 54.9717L65.3047 93.2357Z" stroke="black" stroke-width="7"/>
<path d="M253.598 97.4606C254.965 96.0938 254.965 93.8777 253.598 92.5109L231.325 70.237C229.958 68.8702 227.742 68.8702 226.375 70.237C225.008 71.6038 225.008 73.8199 226.375 75.1868L246.174 94.9857L226.375 114.785C225.008 116.152 225.008 118.368 226.375 119.734C227.742 121.101 229.958 121.101 231.325 119.734L253.598 97.4606ZM133.662 98.4857H251.123V91.4857H133.662V98.4857Z" fill="black"/>
</svg>
