<svg width="255" height="136" viewBox="0 0 255 136" fill="none" xmlns="http://www.w3.org/2000/svg">
<path d="M178.069 68.153C178.069 92.6314 158.226 112.475 133.748 112.475C109.269 112.475 89.4256 92.6314 89.4256 68.153C89.4256 43.6747 109.269 23.8311 133.748 23.8311C158.226 23.8311 178.069 43.6747 178.069 68.153Z" stroke="black" stroke-width="7"/>
<path d="M65.3904 66.403L64.3918 68.1327L65.3728 69.8723L87.0763 108.358C81.1245 111.12 74.6193 112.532 68.0291 112.473C60.2683 112.405 52.6616 110.299 45.9699 106.368C39.2782 102.436 33.7361 96.8166 29.8982 90.0709C26.0602 83.3251 24.0608 75.6898 24.1001 67.9288C24.1393 60.1678 26.2159 52.5531 30.1219 45.8466C34.0279 39.14 39.6265 33.5767 46.3577 29.7132C53.0888 25.8496 60.7164 23.8213 68.4775 23.8311C75.068 23.8395 81.5585 25.3172 87.4822 28.139L65.3904 66.403Z" stroke="black" stroke-width="7"/>
<path d="M253.684 70.6279C255.051 69.2611 255.051 67.045 253.684 65.6782L231.41 43.4043C230.043 42.0375 227.827 42.0375 226.461 43.4043C225.094 44.7711 225.094 46.9872 226.461 48.3541L246.26 68.153L226.461 87.952C225.094 89.3189 225.094 91.5349 226.461 92.9018C227.827 94.2686 230.043 94.2686 231.41 92.9018L253.684 70.6279ZM133.748 71.653L251.209 71.653V64.653L133.748 64.653V71.653Z" fill="black"/>
</svg>
