<svg width="111" height="110" viewBox="0 0 111 110" fill="none" xmlns="http://www.w3.org/2000/svg">
<path d="M77.445 54.8028C77.445 65.4099 68.8462 74.0087 58.239 74.0087C47.6319 74.0087 39.0331 65.4099 39.0331 54.8028C39.0331 44.1956 47.6319 35.5968 58.239 35.5968C68.8462 35.5968 77.445 44.1956 77.445 54.8028Z" stroke="black" stroke-width="3"/>
<path d="M28.6551 54.0528L28.2271 54.794L28.6476 55.5396L38.053 72.2177C35.4697 73.419 32.6454 74.0333 29.7841 74.008C26.4211 73.9782 23.1249 73.0659 20.2252 71.3623C17.3255 69.6587 14.924 67.2235 13.2609 64.3004C11.5978 61.3773 10.7314 58.0687 10.7484 54.7056C10.7654 51.3425 11.6652 48.0429 13.3578 45.1367C15.0504 42.2306 17.4764 39.8198 20.3932 38.1457C23.31 36.4715 26.6153 35.5925 29.9784 35.5968C32.8398 35.6004 35.6578 36.2433 38.2287 37.4707L28.6551 54.0528Z" stroke="black" stroke-width="3"/>
<path d="M110.158 55.8634C110.744 55.2776 110.744 54.3279 110.158 53.7421L100.612 44.1962C100.027 43.6104 99.0768 43.6104 98.4911 44.1962C97.9053 44.7819 97.9053 45.7317 98.4911 46.3175L106.976 54.8028L98.4911 63.288C97.9053 63.8738 97.9053 64.8236 98.4911 65.4094C99.0768 65.9952 100.027 65.9952 100.612 65.4094L110.158 55.8634ZM58.2391 56.3028L109.098 56.3028V53.3028L58.2391 53.3028V56.3028Z" fill="black"/>
</svg>
