<svg width="132" height="132" viewBox="0 0 132 132" fill="none" xmlns="http://www.w3.org/2000/svg">
    <rect x="0.435852" y="65.8028" width="92.5583" height="92.5583" transform="rotate(-45 0.435852 65.8028)" fill="black"/>
    <path d="M85.0905 65.8027C85.0905 76.4099 76.4916 85.0087 65.8845 85.0087C55.2773 85.0087 46.6785 76.4099 46.6785 65.8027C46.6785 55.1956 55.2773 46.5968 65.8845 46.5968C76.4916 46.5968 85.0905 55.1956 85.0905 65.8027Z" stroke="white" stroke-width="3"/>
    <path d="M36.3005 65.0528L35.8726 65.794L36.293 66.5396L45.6984 83.2177C43.1152 84.419 40.2909 85.0333 37.4295 85.008C34.0666 84.9782 30.7703 84.0659 27.8706 82.3623C24.9709 80.6587 22.5694 78.2235 20.9063 75.3004C19.2432 72.3773 18.3768 69.0687 18.3938 65.7056C18.4109 62.3425 19.3107 59.0429 21.0033 56.1367C22.6959 53.2306 25.1219 50.8198 28.0387 49.1457C30.9555 47.4715 34.2607 46.5925 37.6239 46.5968C40.4853 46.6004 43.3032 47.2433 45.8742 48.4707L36.3005 65.0528Z" stroke="white" stroke-width="3"/>
    <path d="M117.804 66.8634C118.39 66.2776 118.39 65.3279 117.804 64.7421L108.258 55.1961C107.672 54.6104 106.722 54.6104 106.137 55.1961C105.551 55.7819 105.551 56.7317 106.137 57.3175L114.622 65.8027L106.137 74.288C105.551 74.8738 105.551 75.8236 106.137 76.4094C106.722 76.9951 107.672 76.9951 108.258 76.4094L117.804 66.8634ZM65.8845 67.3027L116.743 67.3028V64.3027L65.8845 64.3027V67.3027Z" fill="white"/>
</svg>