<svg width="111" height="60" viewBox="0 0 111 60" fill="none" xmlns="http://www.w3.org/2000/svg">
<path d="M77.0905 29.8027C77.0905 40.4099 68.4916 49.0087 57.8845 49.0087C47.2773 49.0087 38.6785 40.4099 38.6785 29.8027C38.6785 19.1956 47.2773 10.5968 57.8845 10.5968C68.4916 10.5968 77.0905 19.1956 77.0905 29.8027Z" stroke="white" stroke-width="3"/>
<path d="M28.3005 29.0528L27.8726 29.794L28.293 30.5396L37.6984 47.2177C35.1152 48.419 32.2909 49.0333 29.4295 49.008C26.0666 48.9782 22.7703 48.0659 19.8706 46.3623C16.9709 44.6587 14.5694 42.2235 12.9063 39.3004C11.2432 36.3773 10.3768 33.0687 10.3938 29.7056C10.4109 26.3425 11.3107 23.0429 13.0033 20.1367C14.6959 17.2306 17.1219 14.8198 20.0387 13.1457C22.9555 11.4715 26.2607 10.5925 29.6239 10.5968C32.4853 10.6004 35.3032 11.2433 37.8742 12.4707L28.3005 29.0528Z" stroke="white" stroke-width="3"/>
<path d="M109.804 30.8634C110.39 30.2776 110.39 29.3279 109.804 28.7421L100.258 19.1961C99.672 18.6104 98.7223 18.6104 98.1365 19.1961C97.5507 19.7819 97.5507 20.7317 98.1365 21.3175L106.622 29.8027L98.1365 38.288C97.5507 38.8738 97.5507 39.8236 98.1365 40.4094C98.7223 40.9951 99.672 40.9951 100.258 40.4094L109.804 30.8634ZM57.8845 31.3027L108.743 31.3028V28.3027L57.8845 28.3027V31.3027Z" fill="white"/>
</svg>
